<?xml version="1.0" encoding="UTF-8" standalone="no"?>
<!DOCTYPE svg PUBLIC "-//W3C//DTD SVG 1.1//EN"
 "http://www.w3.org/Graphics/SVG/1.1/DTD/svg11.dtd">
<!-- Generated by graphviz version 2.36.0 (20140111.2315)
 -->
<!-- Title: g Pages: 1 -->
<svg width="242pt" height="67pt"
 viewBox="0.00 0.00 242.00 67.00" xmlns="http://www.w3.org/2000/svg" xmlns:xlink="http://www.w3.org/1999/xlink">
<g id="graph0" class="graph" transform="scale(1 1) rotate(0) translate(4 63)">
<title>g</title>
<polygon fill="white" stroke="none" points="-4,4 -4,-63 238,-63 238,4 -4,4"/>
<!-- a -->
<g id="node1" class="node"><title>a</title>
<polygon fill="none" stroke="black" points="54,-36 0,-36 0,-0 54,-0 54,-36"/>
<text text-anchor="middle" x="27" y="-14.3" font-family="Times,serif" font-size="14.00">a</text>
</g>
<!-- b -->
<g id="node2" class="node"><title>b</title>
<ellipse fill="none" stroke="black" cx="117" cy="-41" rx="27" ry="18"/>
<text text-anchor="middle" x="117" y="-37.3" font-family="Times,serif" font-size="14.00">b</text>
</g>
<!-- a&#45;&gt;b -->
<g id="edge1" class="edge"><title>a&#45;&gt;b</title>
<path fill="none" stroke="black" d="M54.4029,-24.9008C63.0103,-27.1504 72.6933,-29.6812 81.7885,-32.0584"/>
<polygon fill="black" stroke="black" points="81.1588,-35.5113 91.7188,-34.6538 82.9289,-28.7388 81.1588,-35.5113"/>
</g>
<!-- c -->
<g id="node3" class="node"><title>c</title>
<ellipse fill="none" stroke="black" cx="207" cy="-18" rx="27" ry="18"/>
<text text-anchor="middle" x="207" y="-14.3" font-family="Times,serif" font-size="14.00">c</text>
</g>
<!-- a&#45;&gt;c -->
<g id="edge2" class="edge"><title>a&#45;&gt;c</title>
<path fill="none" stroke="black" d="M54.2278,-15.9325C65.2648,-15.16 78.2491,-14.3787 90,-14 113.988,-13.227 120.012,-13.227 144,-14 152.431,-14.2717 161.496,-14.7506 170.022,-15.2849"/>
<polygon fill="black" stroke="black" points="169.865,-18.7821 180.075,-15.9538 170.33,-11.7975 169.865,-18.7821"/>
</g>
<!-- b&#45;&gt;c -->
<g id="edge3" class="edge"><title>b&#45;&gt;c</title>
<path fill="none" stroke="black" d="M142.513,-34.5932C151.572,-32.2256 162.012,-29.497 171.775,-26.9452"/>
<polygon fill="black" stroke="black" points="172.829,-30.2874 181.619,-24.3724 171.058,-23.5149 172.829,-30.2874"/>
</g>
</g>
</svg>
