<?xml version="1.0" encoding="UTF-8" standalone="no"?>
<!DOCTYPE svg PUBLIC "-//W3C//DTD SVG 1.1//EN"
 "http://www.w3.org/Graphics/SVG/1.1/DTD/svg11.dtd">
<!-- Generated by graphviz version 2.26.3 (20100126.1600)
 -->
<!-- Title: g Pages: 1 -->
<svg width="242pt" height="67pt"
 viewBox="0.00 0.00 242.00 67.00" xmlns="http://www.w3.org/2000/svg" xmlns:xlink="http://www.w3.org/1999/xlink">
<g id="graph1" class="graph" transform="scale(1 1) rotate(0) translate(4 63)">
<title>g</title>
<polygon fill="white" stroke="white" points="-4,5 -4,-63 239,-63 239,5 -4,5"/>
<!-- a -->
<g id="node1" class="node"><title>a</title>
<polygon fill="none" stroke="black" points="54,-36 2.13163e-14,-36 0,-1.77636e-14 54,-3.55271e-15 54,-36"/>
<text text-anchor="middle" x="27" y="-13.9" font-family="Times Roman,serif" font-size="14.00">a</text>
</g>
<!-- b -->
<g id="node3" class="node"><title>b</title>
<ellipse fill="none" stroke="black" cx="117" cy="-41" rx="27" ry="18"/>
<text text-anchor="middle" x="117" y="-36.9" font-family="Times Roman,serif" font-size="14.00">b</text>
</g>
<!-- a&#45;&gt;b -->
<g id="edge2" class="edge"><title>a&#45;&gt;b</title>
<path fill="none" stroke="black" d="M54.003,-24.9008C62.7485,-27.1357 72.5798,-29.6482 81.8288,-32.0118"/>
<polygon fill="black" stroke="black" points="81.0021,-35.413 91.5574,-34.498 82.7353,-28.6309 81.0021,-35.413"/>
</g>
<!-- c -->
<g id="node5" class="node"><title>c</title>
<ellipse fill="none" stroke="black" cx="207" cy="-18" rx="27" ry="18"/>
<text text-anchor="middle" x="207" y="-13.9" font-family="Times Roman,serif" font-size="14.00">c</text>
</g>
<!-- a&#45;&gt;c -->
<g id="edge4" class="edge"><title>a&#45;&gt;c</title>
<path fill="none" stroke="black" d="M54.2708,-15.89C65.3503,-15.1315 78.2792,-14.3717 90,-14 113.988,-13.2392 120.012,-13.2392 144,-14 152.411,-14.2667 161.443,-14.7333 169.968,-15.2558"/>
<polygon fill="black" stroke="black" points="169.833,-18.7543 180.039,-15.9113 170.288,-11.7691 169.833,-18.7543"/>
</g>
<!-- b&#45;&gt;c -->
<g id="edge6" class="edge"><title>b&#45;&gt;c</title>
<path fill="none" stroke="black" d="M142.55,-34.4706C151.652,-32.1444 162.07,-29.4822 171.837,-26.9861"/>
<polygon fill="black" stroke="black" points="172.876,-30.3332 181.698,-24.4661 171.143,-23.5511 172.876,-30.3332"/>
</g>
</g>
</svg>
