<?xml version="1.0" encoding="UTF-8" standalone="no"?>
<!DOCTYPE svg PUBLIC "-//W3C//DTD SVG 1.1//EN"
 "http://www.w3.org/Graphics/SVG/1.1/DTD/svg11.dtd">
<!-- Generated by graphviz version 2.26.3 (20100126.1600)
 -->
<!-- Title: g Pages: 1 -->
<svg width="302pt" height="194pt"
 viewBox="0.00 0.00 302.00 194.00" xmlns="http://www.w3.org/2000/svg" xmlns:xlink="http://www.w3.org/1999/xlink">
<g id="graph1" class="graph" transform="scale(1 1) rotate(0) translate(4 190)">
<title>g</title>
<polygon fill="white" stroke="white" points="-4,5 -4,-190 299,-190 299,5 -4,5"/>
<!-- ext -->
<g id="node1" class="node"><title>ext</title>
<polygon fill="lightgrey" stroke="lightgrey" points="134,-186 62,-186 50,-174 50,-156 62,-144 134,-144 146,-156 146,-174 134,-186"/>
<path fill="lightgrey" stroke="lightgrey" d="M62,-186C56,-186 50,-180 50,-174"/>
<path fill="lightgrey" stroke="lightgrey" d="M50,-156C50,-150 56,-144 62,-144"/>
<path fill="lightgrey" stroke="lightgrey" d="M134,-144C140,-144 146,-150 146,-156"/>
<path fill="lightgrey" stroke="lightgrey" d="M146,-174C146,-180 140,-186 134,-186"/>
<polyline fill="none" stroke="red" points="134,-186 62,-186 "/>
<path fill="none" stroke="red" d="M62,-186C56,-186 50,-180 50,-174"/>
<polyline fill="none" stroke="red" points="50,-174 50,-156 "/>
<path fill="none" stroke="red" d="M50,-156C50,-150 56,-144 62,-144"/>
<polyline fill="none" stroke="red" points="62,-144 134,-144 "/>
<path fill="none" stroke="red" d="M134,-144C140,-144 146,-150 146,-156"/>
<polyline fill="none" stroke="red" points="146,-156 146,-174 "/>
<path fill="none" stroke="red" d="M146,-174C146,-180 140,-186 134,-186"/>
<text text-anchor="middle" x="98" y="-169.4" font-family="Times Roman,serif" font-size="14.00">External</text>
<text text-anchor="middle" x="98" y="-152.4" font-family="Times Roman,serif" font-size="14.00">RDF graphs</text>
</g>
<!-- stog -->
<g id="node3" class="node"><title>stog</title>
<polygon fill="lightgrey" stroke="red" points="211,-108 89,-108 89,-72 211,-72 211,-108"/>
<text text-anchor="middle" x="150" y="-85.9" font-family="Times Roman,serif" font-size="14.00">Stog + stog&#45;rdf</text>
</g>
<!-- ext&#45;&gt;stog -->
<g id="edge2" class="edge"><title>ext&#45;&gt;stog</title>
<path fill="none" stroke="black" d="M112.762,-143.709C118.678,-135.176 125.556,-125.256 131.778,-116.281"/>
<polygon fill="black" stroke="black" points="134.669,-118.254 137.491,-108.042 128.917,-114.266 134.669,-118.254"/>
</g>
<!-- src -->
<g id="node2" class="node"><title>src</title>
<polygon fill="lightgrey" stroke="lightgrey" points="230,-183 176,-183 164,-171 164,-159 176,-147 230,-147 242,-159 242,-171 230,-183"/>
<path fill="lightgrey" stroke="lightgrey" d="M176,-183C170,-183 164,-177 164,-171"/>
<path fill="lightgrey" stroke="lightgrey" d="M164,-159C164,-153 170,-147 176,-147"/>
<path fill="lightgrey" stroke="lightgrey" d="M230,-147C236,-147 242,-153 242,-159"/>
<path fill="lightgrey" stroke="lightgrey" d="M242,-171C242,-177 236,-183 230,-183"/>
<polyline fill="none" stroke="red" points="230,-183 176,-183 "/>
<path fill="none" stroke="red" d="M176,-183C170,-183 164,-177 164,-171"/>
<polyline fill="none" stroke="red" points="164,-171 164,-159 "/>
<path fill="none" stroke="red" d="M164,-159C164,-153 170,-147 176,-147"/>
<polyline fill="none" stroke="red" points="176,-147 230,-147 "/>
<path fill="none" stroke="red" d="M230,-147C236,-147 242,-153 242,-159"/>
<polyline fill="none" stroke="red" points="242,-159 242,-171 "/>
<path fill="none" stroke="red" d="M242,-171C242,-177 236,-183 230,-183"/>
<text text-anchor="middle" x="203" y="-160.9" font-family="Times Roman,serif" font-size="14.00">XML files</text>
</g>
<!-- src&#45;&gt;stog -->
<g id="edge4" class="edge"><title>src&#45;&gt;stog</title>
<path fill="none" stroke="black" d="M190.17,-146.845C183.773,-137.791 175.911,-126.667 168.844,-116.667"/>
<polygon fill="black" stroke="black" points="171.525,-114.395 162.895,-108.248 165.808,-118.435 171.525,-114.395"/>
</g>
<!-- out -->
<g id="node4" class="node"><title>out</title>
<polygon fill="lightgrey" stroke="lightgrey" points="282,-36 174,-36 162,-24 162,-12 174,-1.64717e-14 282,-4.84461e-15 294,-12 294,-24 282,-36"/>
<path fill="lightgrey" stroke="lightgrey" d="M174,-36C168,-36 162,-30 162,-24"/>
<path fill="lightgrey" stroke="lightgrey" d="M162,-12C162,-6 168,-1.71176e-14 174,-1.64717e-14"/>
<path fill="lightgrey" stroke="lightgrey" d="M282,-4.84461e-15C288,-4.19866e-15 294,-6 294,-12"/>
<path fill="lightgrey" stroke="lightgrey" d="M294,-24C294,-30 288,-36 282,-36"/>
<polyline fill="none" stroke="red" points="282,-36 174,-36 "/>
<path fill="none" stroke="red" d="M174,-36C168,-36 162,-30 162,-24"/>
<polyline fill="none" stroke="red" points="162,-24 162,-12 "/>
<path fill="none" stroke="red" d="M162,-12C162,-6 168,-1.71176e-14 174,-1.64717e-14"/>
<polyline fill="none" stroke="red" points="174,-1.64717e-14 282,-4.84461e-15 "/>
<path fill="none" stroke="red" d="M282,-4.84461e-15C288,-4.19866e-15 294,-6 294,-12"/>
<polyline fill="none" stroke="red" points="294,-12 294,-24 "/>
<path fill="none" stroke="red" d="M294,-24C294,-30 288,-36 282,-36"/>
<text text-anchor="middle" x="228" y="-13.9" font-family="Times Roman,serif" font-size="14.00">Output XML files</text>
</g>
<!-- stog&#45;&gt;out -->
<g id="edge8" class="edge"><title>stog&#45;&gt;out</title>
<path fill="none" stroke="black" d="M169.683,-71.8314C179.105,-63.1337 190.54,-52.5783 200.78,-43.1265"/>
<polygon fill="black" stroke="black" points="203.35,-45.5175 208.324,-36.1628 198.602,-40.3738 203.35,-45.5175"/>
</g>
<!-- outrdf -->
<g id="node5" class="node"><title>outrdf</title>
<polygon fill="lightgrey" stroke="lightgrey" points="132,-36 12,-36 3.78956e-14,-24 1.89478e-14,-12 12,-1.65793e-14 132,-4.73695e-15 144,-12 144,-24 132,-36"/>
<path fill="lightgrey" stroke="lightgrey" d="M12,-36C6,-36 4.73695e-14,-30 3.78956e-14,-24"/>
<path fill="lightgrey" stroke="lightgrey" d="M1.89478e-14,-12C9.4739e-15,-6 6,-1.71714e-14 12,-1.65793e-14"/>
<path fill="lightgrey" stroke="lightgrey" d="M132,-4.73695e-15C138,-4.14483e-15 144,-6 144,-12"/>
<path fill="lightgrey" stroke="lightgrey" d="M144,-24C144,-30 138,-36 132,-36"/>
<polyline fill="none" stroke="red" points="132,-36 12,-36 "/>
<path fill="none" stroke="red" d="M12,-36C6,-36 4.73695e-14,-30 3.78956e-14,-24"/>
<polyline fill="none" stroke="red" points="3.78956e-14,-24 1.89478e-14,-12 "/>
<path fill="none" stroke="red" d="M1.89478e-14,-12C9.4739e-15,-6 6,-1.71714e-14 12,-1.65793e-14"/>
<polyline fill="none" stroke="red" points="12,-1.65793e-14 132,-4.73695e-15 "/>
<path fill="none" stroke="red" d="M132,-4.73695e-15C138,-4.14483e-15 144,-6 144,-12"/>
<polyline fill="none" stroke="red" points="144,-12 144,-24 "/>
<path fill="none" stroke="red" d="M144,-24C144,-30 138,-36 132,-36"/>
<text text-anchor="middle" x="72" y="-13.9" font-family="Times Roman,serif" font-size="14.00">Output RDF graph</text>
</g>
<!-- stog&#45;&gt;outrdf -->
<g id="edge6" class="edge"><title>stog&#45;&gt;outrdf</title>
<path fill="none" stroke="black" d="M130.317,-71.8314C120.895,-63.1337 109.46,-52.5783 99.2204,-43.1265"/>
<polygon fill="black" stroke="black" points="101.398,-40.3738 91.6764,-36.1628 96.6505,-45.5175 101.398,-40.3738"/>
</g>
</g>
</svg>
