<?xml version="1.0" encoding="UTF-8" standalone="no"?>
<!DOCTYPE svg PUBLIC "-//W3C//DTD SVG 1.1//EN"
 "http://www.w3.org/Graphics/SVG/1.1/DTD/svg11.dtd">
<!-- Generated by graphviz version 2.36.0 (20140111.2315)
 -->
<!-- Title: g Pages: 1 -->
<svg width="261pt" height="190pt"
 viewBox="0.00 0.00 261.00 190.00" xmlns="http://www.w3.org/2000/svg" xmlns:xlink="http://www.w3.org/1999/xlink">
<g id="graph0" class="graph" transform="scale(1 1) rotate(0) translate(4 186)">
<title>g</title>
<polygon fill="white" stroke="none" points="-4,4 -4,-186 257,-186 257,4 -4,4"/>
<!-- ext -->
<g id="node1" class="node"><title>ext</title>
<path fill="lightgrey" stroke="red" d="M108.25,-182C108.25,-182 49.75,-182 49.75,-182 43.75,-182 37.75,-176 37.75,-170 37.75,-170 37.75,-156 37.75,-156 37.75,-150 43.75,-144 49.75,-144 49.75,-144 108.25,-144 108.25,-144 114.25,-144 120.25,-150 120.25,-156 120.25,-156 120.25,-170 120.25,-170 120.25,-176 114.25,-182 108.25,-182"/>
<text text-anchor="middle" x="79" y="-166.8" font-family="Times,serif" font-size="14.00">External</text>
<text text-anchor="middle" x="79" y="-151.8" font-family="Times,serif" font-size="14.00">RDF graphs</text>
</g>
<!-- stog -->
<g id="node3" class="node"><title>stog</title>
<polygon fill="lightgrey" stroke="red" points="177,-108 77,-108 77,-72 177,-72 177,-108"/>
<text text-anchor="middle" x="127" y="-86.3" font-family="Times,serif" font-size="14.00">Stog + stog&#45;rdf</text>
</g>
<!-- ext&#45;&gt;stog -->
<g id="edge1" class="edge"><title>ext&#45;&gt;stog</title>
<path fill="none" stroke="black" d="M91.3612,-143.716C97.0026,-135.371 103.776,-125.352 109.896,-116.3"/>
<polygon fill="black" stroke="black" points="112.803,-118.248 115.505,-108.003 107.004,-114.328 112.803,-118.248"/>
</g>
<!-- src -->
<g id="node2" class="node"><title>src</title>
<path fill="lightgrey" stroke="red" d="M201,-181C201,-181 151,-181 151,-181 145,-181 139,-175 139,-169 139,-169 139,-157 139,-157 139,-151 145,-145 151,-145 151,-145 201,-145 201,-145 207,-145 213,-151 213,-157 213,-157 213,-169 213,-169 213,-175 207,-181 201,-181"/>
<text text-anchor="middle" x="176" y="-159.3" font-family="Times,serif" font-size="14.00">XML files</text>
</g>
<!-- src&#45;&gt;stog -->
<g id="edge2" class="edge"><title>src&#45;&gt;stog</title>
<path fill="none" stroke="black" d="M164.138,-144.813C158.24,-136.266 150.996,-125.769 144.476,-116.323"/>
<polygon fill="black" stroke="black" points="147.313,-114.271 138.752,-108.029 141.552,-118.247 147.313,-114.271"/>
</g>
<!-- out -->
<g id="node4" class="node"><title>out</title>
<path fill="lightgrey" stroke="red" d="M240.5,-36C240.5,-36 149.5,-36 149.5,-36 143.5,-36 137.5,-30 137.5,-24 137.5,-24 137.5,-12 137.5,-12 137.5,-6 143.5,-0 149.5,-0 149.5,-0 240.5,-0 240.5,-0 246.5,-0 252.5,-6 252.5,-12 252.5,-12 252.5,-24 252.5,-24 252.5,-30 246.5,-36 240.5,-36"/>
<text text-anchor="middle" x="195" y="-14.3" font-family="Times,serif" font-size="14.00">Output XML files</text>
</g>
<!-- stog&#45;&gt;out -->
<g id="edge4" class="edge"><title>stog&#45;&gt;out</title>
<path fill="none" stroke="black" d="M143.809,-71.6966C152.126,-63.135 162.305,-52.6562 171.39,-43.3045"/>
<polygon fill="black" stroke="black" points="173.927,-45.7159 178.384,-36.1043 168.906,-40.8384 173.927,-45.7159"/>
</g>
<!-- outrdf -->
<g id="node5" class="node"><title>outrdf</title>
<path fill="lightgrey" stroke="red" d="M106.25,-36C106.25,-36 11.75,-36 11.75,-36 5.75,-36 -0.25,-30 -0.25,-24 -0.25,-24 -0.25,-12 -0.25,-12 -0.25,-6 5.75,-0 11.75,-0 11.75,-0 106.25,-0 106.25,-0 112.25,-0 118.25,-6 118.25,-12 118.25,-12 118.25,-24 118.25,-24 118.25,-30 112.25,-36 106.25,-36"/>
<text text-anchor="middle" x="59" y="-14.3" font-family="Times,serif" font-size="14.00">Output RDF graph</text>
</g>
<!-- stog&#45;&gt;outrdf -->
<g id="edge3" class="edge"><title>stog&#45;&gt;outrdf</title>
<path fill="none" stroke="black" d="M110.191,-71.6966C101.874,-63.135 91.6946,-52.6562 82.6101,-43.3045"/>
<polygon fill="black" stroke="black" points="85.094,-40.8384 75.6156,-36.1043 80.073,-45.7159 85.094,-40.8384"/>
</g>
</g>
</svg>
