<?xml version="1.0" encoding="UTF-8" standalone="no"?>
<!DOCTYPE svg PUBLIC "-//W3C//DTD SVG 1.1//EN"
 "http://www.w3.org/Graphics/SVG/1.1/DTD/svg11.dtd">
<!-- Generated by graphviz version 2.26.3 (20100126.1600)
 -->
<!-- Title: g Pages: 1 -->
<svg width="565pt" height="314pt"
 viewBox="0.00 0.00 565.00 314.00" xmlns="http://www.w3.org/2000/svg" xmlns:xlink="http://www.w3.org/1999/xlink">
<g id="graph1" class="graph" transform="scale(1 1) rotate(0) translate(4 310)">
<title>g</title>
<polygon fill="white" stroke="white" points="-4,5 -4,-310 562,-310 562,5 -4,5"/>
<!-- article -->
<g id="node1" class="node"><title>article</title>
<polygon fill="none" stroke="black" points="195,-306 95,-306 95,-270 195,-270 195,-306"/>
<text text-anchor="middle" x="145" y="-283.9" font-family="Times Roman,serif" font-size="14.00">oa:articles/1</text>
</g>
<!-- proof1_5 -->
<g id="node2" class="node"><title>proof1_5</title>
<polygon fill="none" stroke="black" points="156,-216 7.10543e-14,-216 0,-180 156,-180 156,-216"/>
<text text-anchor="middle" x="78" y="-193.9" font-family="Times Roman,serif" font-size="14.00">oa:articles/1#proof5</text>
</g>
<!-- article&#45;&gt;proof1_5 -->
<g id="edge2" class="edge"><title>article&#45;&gt;proof1_5</title>
<path fill="none" stroke="black" d="M117.007,-269.967C110.46,-264.769 103.958,-258.676 99,-252 93.2479,-244.255 88.8583,-234.734 85.6176,-225.855"/>
<polygon fill="black" stroke="black" points="88.8981,-224.628 82.4356,-216.232 82.252,-226.825 88.8981,-224.628"/>
<text text-anchor="middle" x="138.5" y="-238.9" font-family="Times Roman,serif" font-size="14.00">ns:contains</text>
</g>
<!-- th1 -->
<g id="node3" class="node"><title>th1</title>
<polygon fill="none" stroke="black" points="282,-126 102,-126 102,-90 282,-90 282,-126"/>
<text text-anchor="middle" x="192" y="-103.9" font-family="Times Roman,serif" font-size="14.00">oa:articles/1#theorem1</text>
</g>
<!-- article&#45;&gt;th1 -->
<g id="edge4" class="edge"><title>article&#45;&gt;th1</title>
<path fill="none" stroke="black" d="M165.745,-269.893C170.55,-264.617 175.1,-258.505 178,-252 194.672,-214.61 195.79,-166.462 194.401,-136.409"/>
<polygon fill="black" stroke="black" points="197.882,-135.986 193.8,-126.209 190.895,-136.397 197.882,-135.986"/>
<text text-anchor="middle" x="233.5" y="-193.9" font-family="Times Roman,serif" font-size="14.00">ns:contains</text>
</g>
<!-- proof1_5&#45;&gt;th1 -->
<g id="edge10" class="edge"><title>proof1_5&#45;&gt;th1</title>
<path fill="none" stroke="black" d="M85.6758,-179.769C91.2839,-168.265 99.8512,-153.783 111,-144 116.567,-139.115 122.903,-134.795 129.523,-130.999"/>
<polygon fill="black" stroke="black" points="131.484,-133.921 138.68,-126.145 128.205,-127.737 131.484,-133.921"/>
<text text-anchor="middle" x="144.5" y="-148.9" font-family="Times Roman,serif" font-size="14.00">ns:proves</text>
</g>
<!-- ns:Theorem -->
<g id="node13" class="node"><title>ns:Theorem</title>
<ellipse fill="none" stroke="black" cx="192" cy="-18" rx="68.0985" ry="18"/>
<text text-anchor="middle" x="192" y="-13.9" font-family="Times Roman,serif" font-size="14.00">ns:Theorem</text>
</g>
<!-- th1&#45;&gt;ns:Theorem -->
<g id="edge12" class="edge"><title>th1&#45;&gt;ns:Theorem</title>
<path fill="none" stroke="black" d="M192,-89.7872C192,-77.3443 192,-60.6053 192,-46.4211"/>
<polygon fill="black" stroke="black" points="195.5,-46.1857 192,-36.1858 188.5,-46.1858 195.5,-46.1857"/>
<text text-anchor="middle" x="219.5" y="-58.9" font-family="Times Roman,serif" font-size="14.00">rdf:Type</text>
</g>
<!-- article2 -->
<g id="node4" class="node"><title>article2</title>
<polygon fill="none" stroke="black" points="479,-306 379,-306 379,-270 479,-270 479,-306"/>
<text text-anchor="middle" x="429" y="-283.9" font-family="Times Roman,serif" font-size="14.00">oa:articles/2</text>
</g>
<!-- lemma1 -->
<g id="node5" class="node"><title>lemma1</title>
<polygon fill="none" stroke="black" points="474,-126 308,-126 308,-90 474,-90 474,-126"/>
<text text-anchor="middle" x="391" y="-103.9" font-family="Times Roman,serif" font-size="14.00">oa:articles/2#lemma1</text>
</g>
<!-- article2&#45;&gt;lemma1 -->
<g id="edge8" class="edge"><title>article2&#45;&gt;lemma1</title>
<path fill="none" stroke="black" d="M454.113,-269.82C459.339,-264.699 464.127,-258.679 467,-252 479.017,-224.063 491.597,-201.706 452,-144 449.032,-139.675 445.36,-135.792 441.3,-132.323"/>
<polygon fill="black" stroke="black" points="443.195,-129.369 433.099,-126.157 438.988,-134.964 443.195,-129.369"/>
<text text-anchor="middle" x="517.5" y="-193.9" font-family="Times Roman,serif" font-size="14.00">ns:contains</text>
</g>
<!-- proof2_3 -->
<g id="node6" class="node"><title>proof2_3</title>
<polygon fill="none" stroke="black" points="445,-216 289,-216 289,-180 445,-180 445,-216"/>
<text text-anchor="middle" x="367" y="-193.9" font-family="Times Roman,serif" font-size="14.00">oa:articles/2#proof3</text>
</g>
<!-- article2&#45;&gt;proof2_3 -->
<g id="edge6" class="edge"><title>article2&#45;&gt;proof2_3</title>
<path fill="none" stroke="black" d="M404.524,-269.913C398.544,-264.636 392.562,-258.519 388,-252 382.469,-244.096 378.135,-234.535 374.877,-225.668"/>
<polygon fill="black" stroke="black" points="378.156,-224.439 371.65,-216.078 371.522,-226.672 378.156,-224.439"/>
<text text-anchor="middle" x="427.5" y="-238.9" font-family="Times Roman,serif" font-size="14.00">ns:contains</text>
</g>
<!-- proof2_3&#45;&gt;th1 -->
<g id="edge16" class="edge"><title>proof2_3&#45;&gt;th1</title>
<path fill="none" stroke="black" d="M331.586,-179.787C304.099,-165.651 265.831,-145.97 236.313,-130.79"/>
<polygon fill="black" stroke="black" points="237.556,-127.493 227.062,-126.032 234.354,-133.718 237.556,-127.493"/>
<text text-anchor="middle" x="329" y="-148.9" font-family="Times Roman,serif" font-size="14.00">ns:applies</text>
</g>
<!-- proof2_3&#45;&gt;lemma1 -->
<g id="edge14" class="edge"><title>proof2_3&#45;&gt;lemma1</title>
<path fill="none" stroke="black" d="M371.857,-179.787C375.207,-167.222 379.726,-150.277 383.532,-136.005"/>
<polygon fill="black" stroke="black" points="386.956,-136.75 386.15,-126.186 380.192,-134.946 386.956,-136.75"/>
<text text-anchor="middle" x="414.5" y="-148.9" font-family="Times Roman,serif" font-size="14.00">ns:proves</text>
</g>
</g>
</svg>
